<svg xmlns="http://www.w3.org/2000/svg" width="60" height="40" viewBox="0 0 59.53 39.59" role="img" title="Rating Pending to Teen"><defs><style>.cls-1{fill:#fff}</style></defs><g data-name="Layer 2"><g data-name="Layer 1"><path d="M59.53 0H0v39.59l59.53-.01z" class="cls-1"></path><path d="M59 .53v38.54H.52V.53z"></path><path d="M2.58 11.32h54.37v19.55H2.58zm0-8.7h54.34v6.64H2.58zm.02 34.51v-4.11h5.35v.96h-3.2v.59h2.71v.96H4.75v.64h3.32v.96zm10.02-2.91a.41.41 0 0 0-.31-.28 1.8 1.8 0 0 0-.55-.08c-.48 0-.69.09-.69.24 0 .61 3.78.23 3.78 1.72 0 1-1.27 1.42-3.07 1.42s-2.87-.63-2.91-1.37h2.06a.54.54 0 0 0 .35.32 1.8 1.8 0 0 0 .62.1c.53 0 .89-.11.89-.3 0-.62-3.78-.19-3.78-1.76 0-.87 1.21-1.31 2.85-1.31 1.82 0 2.65.58 2.81 1.3zm5.45.58h.85c.66 0 1-.1 1-.39s-.36-.43-.87-.43h-1zm0 .9v1.43h-2.15V33H19c2.19 0 2.91.38 2.91 1.18 0 .47-.34.87-1.1 1 .69.16 1.11.26 1.11 1.09 0 .53 0 .71.23.71v.13H20a1.9 1.9 0 0 1-.1-.72c0-.54-.15-.71-1.15-.71zM25.4 34v.69h.9c.43 0 .74-.12.74-.36s-.43-.33-.88-.33zm0 1.43v.76h.94c.53 0 .93-.07.93-.37s-.5-.39-1.19-.39zm-2.15 1.72V33h3.14c1.48 0 2.65.22 2.65 1 0 .42-.44.73-.85.89.71.12 1.09.5 1.09.94 0 .92-1.12 1.24-2.83 1.24z" class="cls-1"></path><path d="m33.51 21.63-.56-1.93-3.58.92.55 1.92zm-13.17 1.79a2.8 2.8 0 0 0-1.94-2.2 3.52 3.52 0 0 0 .47-3.4c-.63-2.32-2.24-3.45-4.19-2.93l-4.43 1.17h-.09l3.67 13.52 3-.79-1.42-5.21h.15a1.37 1.37 0 0 1 1 0c.4.22.58.89.78 1.68l.17.62a5.7 5.7 0 0 0 .91 2.19l.2.27 3.39-.9-.46-.58a18.5 18.5 0 0 1-1.21-3.44M15.49 21l-.76.2-1-3.5.76-.2c.35-.09 1-.25 1.39 1.37.12.31.52 1.89-.39 2.13m8.56-8.36-4 1.06-.48.13 3.67 13.52 3-.81-1.39-5.11 1.3-.35c2.36-.63 3.27-2.45 2.54-5.13-.91-3.5-3.03-3.73-4.64-3.31m1.24 6-1.08.29c-.22-.8-.74-2.7-.95-3.5l.92-.25c.52-.14 1.12-.14 1.59 1.61.23.83-.01 1.73-.48 1.85m8.25-2.6 14.43-3.59 1.11 3.84-4.64 1.15 3.11 10.79-5.15 1.29-3.12-10.79-4.63 1.16zM4 8.17h-.6V3.46h1.1a.54.54 0 0 1 .5.31 1.9 1.9 0 0 1 .18.92 2.2 2.2 0 0 1-.18.77.64.64 0 0 1-.41.39h.14a.5.5 0 0 1 .18.15.8.8 0 0 1 .15.27 1.6 1.6 0 0 1 .06.5v1.14a1 1 0 0 0 0 .26H4.6a1.6 1.6 0 0 1-.06-.45v-.86a1.5 1.5 0 0 0 0-.33.6.6 0 0 0-.13-.23.38.38 0 0 0-.26-.08H4zM4 5.5h.26a.2.2 0 0 0 .15-.07.4.4 0 0 0 .09-.17.7.7 0 0 0 0-.22 2 2 0 0 0 0-.24 1.1 1.1 0 0 0-.08-.48.27.27 0 0 0-.23-.14H4zm1.35 2.67.8-4.71h.78l.78 4.71h-.63l-.16-1h-.81l-.17 1zm1.15-3.8-.28 2h.57zm2.95-.91v.78h-.66v3.93h-.6V4.24h-.66v-.78zm.28 4.71V3.46h.6v4.71zm1.1 0V3.46h.81l.76 3.26V3.46h.6v4.71h-.78l-.82-3.45v3.45zm3.94-3.26v-.32a.7.7 0 0 0 0-.26.5.5 0 0 0-.1-.18.3.3 0 0 0-.19-.06.22.22 0 0 0-.22.14 1.5 1.5 0 0 0-.11.38 5 5 0 0 0 0 .56v1.55a4 4 0 0 0 .07.53.53.53 0 0 0 .13.25.37.37 0 0 0 .21.06h.15l.15-.07v-1h-.33V5.7h.93v2.39l-.16.05h-.65a1.16 1.16 0 0 1-.6-.14.8.8 0 0 1-.34-.43 2.8 2.8 0 0 1-.15-.76V4.79a4 4 0 0 1 .12-.77 1.3 1.3 0 0 1 .3-.54.77.77 0 0 1 .57-.21.9.9 0 0 1 .4.1.9.9 0 0 1 .29.3 1.4 1.4 0 0 1 .18.47 3.3 3.3 0 0 1 0 .66zm2-1.45h1.07a.56.56 0 0 1 .35.1.67.67 0 0 1 .24.28 1.6 1.6 0 0 1 .13.45 3.5 3.5 0 0 1 0 .58v.44a2 2 0 0 1-.11.45 1 1 0 0 1-.24.35.6.6 0 0 1-.42.14h-.45v1.92h-.59zm.59 2.07h.34a.17.17 0 0 0 .12-.06.3.3 0 0 0 .09-.14.7.7 0 0 0 .06-.2 1 1 0 0 0 0-.24 3 3 0 0 0 0-.27.9.9 0 0 0-.05-.23.4.4 0 0 0-.1-.15.24.24 0 0 0-.17-.06h-.3zM19 8.17V3.46h1.56v.72h-1v1.17h.89v.72h-.89v1.38h1v.72zm1.94 0V3.46h.81l.76 3.26V3.46h.56v4.71h-.79l-.78-3.45v3.45zm2.65-4.71h1a.67.67 0 0 1 .47.16.9.9 0 0 1 .28.45 2.9 2.9 0 0 1 .14.74v1.94a4 4 0 0 1-.08.52 1.6 1.6 0 0 1-.16.46A.9.9 0 0 1 25 8a.7.7 0 0 1-.43.13h-1zm.6 4h.29a.3.3 0 0 0 .22-.09.7.7 0 0 0 .13-.29 3 3 0 0 0 .06-.5V5.2a4 4 0 0 0-.05-.52 1.3 1.3 0 0 0-.12-.36.28.28 0 0 0-.24-.14h-.31zm1.81.71V3.46h.59v4.71zm1.1 0V3.46h.81l.76 3.26V3.46h.56v4.71h-.79l-.77-3.45v3.45zM31 4.91v-.32a1 1 0 0 0 0-.26.4.4 0 0 0-.11-.18.27.27 0 0 0-.19-.06.22.22 0 0 0-.21.14 1.2 1.2 0 0 0-.11.38 3 3 0 0 0 0 .56v1.55a3 3 0 0 0 .07.53.45.45 0 0 0 .13.25.33.33 0 0 0 .21.06h.15l.06-.09v-1h-.33V5.7h.92v2.39l-.16.05h-.64a1.1 1.1 0 0 1-.6-.14.75.75 0 0 1-.34-.43 2.4 2.4 0 0 1-.15-.76V4.79a3 3 0 0 1 .12-.77 1.2 1.2 0 0 1 .3-.54.74.74 0 0 1 .57-.21.78.78 0 0 1 .69.4 1.4 1.4 0 0 1 .18.47 3.3 3.3 0 0 1 0 .66zm1.78-.03H33v-.53l.56-.41v.94h.29v.56h-.29v1.93a.4.4 0 0 0 0 .13.2.2 0 0 0 .05.09.3.3 0 0 0 .11 0h.05v.57h-.29a.5.5 0 0 1-.29-.08.7.7 0 0 1-.17-.21 1 1 0 0 1-.02-.2 2 2 0 0 1 0-.2v-2h-.22zm2.09 3.35a.63.63 0 0 1-.43-.13.75.75 0 0 1-.25-.36 2 2 0 0 1-.11-.55v-.71a6 6 0 0 1 0-.64 2 2 0 0 1 .1-.53.84.84 0 0 1 .25-.37.72.72 0 0 1 .44-.13.65.65 0 0 1 .68.5 2 2 0 0 1 .11.53v1.35a2.5 2.5 0 0 1-.11.55.75.75 0 0 1-.25.36.65.65 0 0 1-.43.13m0-.58A.2.2 0 0 0 35 7.6a.3.3 0 0 0 .07-.18 1.8 1.8 0 0 0 0-.38V6a3 3 0 0 0 0-.33.7.7 0 0 0-.07-.21.18.18 0 0 0-.14-.06.17.17 0 0 0-.14.06.7.7 0 0 0-.08.19 1.6 1.6 0 0 0 0 .33v1.06a3 3 0 0 0 0 .38.4.4 0 0 0 .08.18.2.2 0 0 0 .15.05m3.82-4.19v.78H38v3.93h-.6V4.24h-.66v-.78zM39 8.17V3.46h1.56v.72h-1v1.17h.89v.72h-.89v1.38h1v.72zm1.94 0V3.46h1.56v.72h-1v1.17h.88v.72h-.88v1.38h1v.72zm1.98 0V3.46h.81l.76 3.26V3.46h.55v4.71h-.78l-.78-3.45v3.45z"></path><path d="M35.78 37.22a1.17 1.17 0 0 1-1-.42 2 2 0 0 1-.39-1.32 2.06 2.06 0 0 1 .4-1.34 1.06 1.06 0 0 1 .88-.44 1.14 1.14 0 0 1 .95.45 2.4 2.4 0 0 1 .38 1.46v.15h-1.74a.94.94 0 0 0 .16.52.47.47 0 0 0 .37.19c.2 0 .34-.14.41-.43l.81.16v.05a1.4 1.4 0 0 1-.46.76 1.2 1.2 0 0 1-.77.21m-.51-2.09h1a.8.8 0 0 0-.15-.49.4.4 0 0 0-.33-.18.43.43 0 0 0-.34.18.86.86 0 0 0-.18.49m3.65 2.09A1.38 1.38 0 0 1 38 37a1.28 1.28 0 0 1-.45-.78v-.05h.05l.76-.15V36c.06.32.23.48.52.48a.6.6 0 0 0 .35-.09.25.25 0 0 0 .11-.22.17.17 0 0 0 0-.13s-.08-.06-.21-.1a3 3 0 0 1-1.13-.43 1 1 0 0 1-.32-.75A1 1 0 0 1 38 34a1.24 1.24 0 0 1 .88-.29 1.32 1.32 0 0 1 .83.22 1.12 1.12 0 0 1 .4.68l-.77.18a.43.43 0 0 0-.46-.36.63.63 0 0 0-.35.07.18.18 0 0 0-.09.15.16.16 0 0 0 .09.14 2.3 2.3 0 0 0 .61.22 1.7 1.7 0 0 1 .83.42 1 1 0 0 1 .23.66 1.12 1.12 0 0 1-.34.82 1.34 1.34 0 0 1-.94.31m2.9-.08H41v-3.36h.76v.32a1.2 1.2 0 0 1 .23-.28.5.5 0 0 1 .34-.12.83.83 0 0 1 .49.17l-.25.86h-.06a.37.37 0 0 0-.53 0 .9.9 0 0 0-.15.37 8 8 0 0 0 0 1zm3.06.08a.87.87 0 0 1-.48-.15 1.1 1.1 0 0 1-.31-.29v.36h-.76v-4.6h.81v1.52a1.3 1.3 0 0 1 .29-.24.83.83 0 0 1 .44-.12 1 1 0 0 1 .85.45 2.14 2.14 0 0 1 .33 1.29 2.17 2.17 0 0 1-.34 1.31 1 1 0 0 1-.83.47m-.2-2.76a.46.46 0 0 0-.38.22 1.2 1.2 0 0 0-.16.71 1.8 1.8 0 0 0 .08.63.64.64 0 0 0 .21.31.45.45 0 0 0 .28.11.44.44 0 0 0 .36-.23 1.4 1.4 0 0 0 .16-.74 1.5 1.5 0 0 0-.16-.78.47.47 0 0 0-.39-.23m2.98 2.68h-.81v-1h.81zm2.22.08a1.32 1.32 0 0 1-1-.47 2 2 0 0 1-.41-1.34 1.9 1.9 0 0 1 .2-.89 1.4 1.4 0 0 1 .51-.61 1.3 1.3 0 0 1 .72-.21 1.24 1.24 0 0 1 1.06.53 1.94 1.94 0 0 1 .38 1.21 2.15 2.15 0 0 1-.19.93 1.6 1.6 0 0 1-.53.64 1.26 1.26 0 0 1-.74.21m0-2.72a.52.52 0 0 0-.42.24 1.53 1.53 0 0 0 0 1.44.52.52 0 0 0 .43.24.51.51 0 0 0 .42-.24 1.2 1.2 0 0 0 .19-.73 1.18 1.18 0 0 0-.19-.71.52.52 0 0 0-.44-.24zm2.99 2.64h-.81v-3.36h.76v.32a1.2 1.2 0 0 1 .22-.28.52.52 0 0 1 .34-.12.86.86 0 0 1 .5.17l-.26.86h-.06c-.2-.17-.39-.17-.52 0a.7.7 0 0 0-.15.37 8 8 0 0 0-.05 1zm2.79 1.33a1.85 1.85 0 0 1-.73-.12 1 1 0 0 1-.43-.35 1.1 1.1 0 0 1-.15-.57v-.16h.06l.85.12a.3.3 0 0 0 .09.22.46.46 0 0 0 .27.07.7.7 0 0 0 .35-.08.28.28 0 0 0 .14-.16 1.3 1.3 0 0 0 .05-.43v-.31a1.2 1.2 0 0 1-.28.27.86.86 0 0 1-.47.14 1 1 0 0 1-.8-.42 2.1 2.1 0 0 1-.36-1.28 2 2 0 0 1 .34-1.29 1 1 0 0 1 .85-.45.9.9 0 0 1 .48.14 1.3 1.3 0 0 1 .29.28v-.34H57v3a3 3 0 0 1-.13 1 1 1 0 0 1-.42.5 1.54 1.54 0 0 1-.79.22m0-4a.43.43 0 0 0-.38.22 1.2 1.2 0 0 0-.16.71 1.3 1.3 0 0 0 .16.74.44.44 0 0 0 .36.21.47.47 0 0 0 .4-.22 1.2 1.2 0 0 0 .17-.71 1.24 1.24 0 0 0-.16-.72.48.48 0 0 0-.42-.24z" class="cls-1"></path></g></g></svg>